<svg xmlns="http://www.w3.org/2000/svg" version="1.1" xmlns:xlink="http://www.w3.org/1999/xlink" xmlns:svgjs="http://svgjs.dev/svgjs" width="1500" height="622" viewBox="0 0 1500 622"><g transform="matrix(1,0,0,1,-1.8351063829786654,-0.042987775640995096)"><svg viewBox="0 0 376 156" data-background-color="#ffffff" preserveAspectRatio="xMidYMid meet" height="622" width="1500" xmlns="http://www.w3.org/2000/svg" xmlns:xlink="http://www.w3.org/1999/xlink"><g id="tight-bounds" transform="matrix(1,0,0,1,0.46023999999999887,0.010781499999993116)"><svg viewBox="0 0 375.07953 155.978437" height="155.978437" width="375.07953"><g><svg></svg></g><g><svg viewBox="0 0 375.07953 155.978437" height="155.978437" width="375.07953"><g transform="matrix(1,0,0,1,-10.22024,-47.16963999999999)"><path d="M10.22 200.03v-152.86h375.08v152.86l-80.386 0 0-3.46h76.925v-145.94h-368.158v145.94h76.925l0 3.46z" fill="#4d331f" fill-rule="nonzero" stroke="none" stroke-width="1" stroke-linecap="butt" stroke-linejoin="miter" stroke-miterlimit="10" stroke-dasharray="" stroke-dashoffset="0" font-family="none" font-weight="none" font-size="none" text-anchor="none" style="mix-blend-mode: normal" data-fill-palette-color="tertiary"></path><g><path transform="translate(99.73206,201.62555) scale(0.26711,0.26711)" d="M29.5-32.05l-0.2 22.05 0.1 10h-3.95l0.2-9.65-0.05-4.8-8.9-0.05-8.15 0.05-0.05 4.45 0.15 10h-3.95l0.15-9.65-0.15-22.4h4l-0.15 14.2 8.5 0.05 8.55-0.05-0.15-14.2zM47.25-3l6.65-0.2 0.3 0.3-0.35 2.9h-15.15l0.15-7.5-0.15-17.4h15.25l0.25 0.3-0.3 2.9-6.3-0.2-5.2 0.05-0.05 7.55 4.95 0.05 4.35-0.15 0.25 0.35-0.3 2.95-4.6-0.15-4.65 0.05-0.05 3.4 0.05 4.75zM71.1-24.9l8.75 24.9h-3.75l-0.6-2.7-1.3-3.7-5.95-0.05-5.3 0.05-1.35 3.5-0.7 2.9h-3.7l9.6-24.9zM68.55-9.4l4.6-0.05-4.15-11.8h-0.3l-4.55 11.8zM99.25-3.15l0.2 0.35-0.25 2.8h-13.25l0.15-7.5-0.15-17.4h3.75l-0.15 17.1 0.1 4.65zM108.65-24.9l-0.15 17.1 0.1 7.8h-3.7l0.15-7.5-0.15-17.4zM138.65-25l-0.15 17.55 0.05 7.45h-4l-13.1-19h-0.25l-0.05 10.7 0.1 8.3h-3.4l0.15-7.35-0.1-17.55h3.95l13.1 19h0.35l-0.1-18.85zM157.6-25.15c2.6 0 5.217 0.567 7.85 1.7v0l-1.25 3.6h-0.45c-1.233-0.8-2.367-1.36-3.4-1.68-1.033-0.313-2.15-0.47-3.35-0.47v0c-2.833 0-4.957 0.8-6.37 2.4-1.42 1.6-2.13 4.1-2.13 7.5v0c0 3.267 0.65 5.623 1.95 7.07 1.3 1.453 3.367 2.18 6.2 2.18v0c0.833 0 1.633-0.077 2.4-0.23 0.767-0.147 1.7-0.42 2.8-0.82v0-2.5l-0.05-3.55 3.45-0.25v9c-3.367 1-6.283 1.5-8.75 1.5v0c-3.933 0-6.907-1.06-8.92-3.18-2.02-2.113-3.03-5.137-3.03-9.07v0c0-4.267 1.143-7.533 3.43-9.8 2.28-2.267 5.487-3.4 9.62-3.4zM202.15-25l-0.15 17.55 0.05 7.45h-4l-13.1-19h-0.25l-0.05 10.7 0.1 8.3h-3.4l0.15-7.35-0.1-17.55h3.95l13.1 19h0.35l-0.1-18.85zM221.8-24.9l8.75 24.9h-3.75l-0.6-2.7-1.3-3.7-5.95-0.05-5.3 0.05-1.35 3.5-0.7 2.9h-3.7l9.6-24.9zM219.25-9.4l4.6-0.05-4.15-11.8h-0.3l-4.55 11.8zM249.55-24.9l0.2 0.3-0.25 3.15-4.65-0.35h-2.5l-0.15 14 0.15 7.8h-3.75l0.15-7.5-0.1-14.3h-2.5l-4.75 0.35-0.3-0.35 0.3-3.1zM275.15-24.9l-0.15 12.65v3.6c0.033 2.833-0.823 5.033-2.57 6.6-1.753 1.567-4.263 2.35-7.53 2.35v0c-3.233 0-5.7-0.773-7.4-2.32-1.7-1.553-2.517-3.763-2.45-6.63v0l0.05-3.8-0.05-12.45h3.75l-0.2 15.65c-0.033 2.1 0.493 3.683 1.58 4.75 1.08 1.067 2.703 1.6 4.87 1.6v0c2.133 0 3.75-0.533 4.85-1.6 1.1-1.067 1.633-2.65 1.6-4.75v0l-0.15-15.65zM294.75-10.05c2.033 3.1 4.283 6.15 6.75 9.15v0l-0.05 0.5c-1.4 0.433-2.55 0.683-3.45 0.75v0l-0.65-0.4c-2.533-3.833-4.45-6.85-5.75-9.05v0l-4.7 0.05v1.25l0.1 7.8h-3.7l0.15-7.5-0.15-17.4 8.5-0.05c2.633 0 4.66 0.617 6.08 1.85 1.413 1.233 2.12 3.017 2.12 5.35v0c0 1.7-0.457 3.217-1.37 4.55-0.92 1.333-2.213 2.383-3.88 3.15zM287-21.9l-0.05 9.75 4.7 0.15c2.967-0.833 4.45-2.65 4.45-5.45v0c0-1.467-0.433-2.567-1.3-3.3-0.867-0.733-2.183-1.133-3.95-1.2v0zM316.65-3l6.65-0.2 0.3 0.3-0.35 2.9h-15.15l0.15-7.5-0.15-17.4h15.25l0.25 0.3-0.3 2.9-6.3-0.2-5.2 0.05-0.05 7.55 4.95 0.05 4.35-0.15 0.25 0.35-0.3 2.95-4.6-0.15-4.65 0.05-0.05 3.4 0.05 4.75zM331.7-4.35c1.4 0.867 2.1 1.983 2.1 3.35v0c0 2.167-1.567 4.4-4.7 6.7v0l-1.35-1.25v-0.35c1.833-1.433 2.75-2.9 2.75-4.4v0c0-0.9-0.517-1.683-1.55-2.35v0-0.4c0.933-0.633 1.85-1.067 2.75-1.3zM359.35-25.2c3.633 0 6.427 1.067 8.38 3.2 1.947 2.133 2.92 5.15 2.92 9.05v0c0 4.233-1.04 7.507-3.12 9.82-2.087 2.32-5.063 3.48-8.93 3.48v0c-3.6 0-6.383-1.093-8.35-3.28-1.967-2.18-2.95-5.287-2.95-9.32v0c0-4.133 1.05-7.327 3.15-9.58 2.1-2.247 5.067-3.37 8.9-3.37zM359-22.05c-2.633 0-4.59 0.75-5.87 2.25-1.287 1.5-1.93 3.867-1.93 7.1v0c0 3.467 0.633 5.983 1.9 7.55 1.267 1.567 3.2 2.35 5.8 2.35v0c2.667 0 4.65-0.767 5.95-2.3 1.3-1.533 1.95-3.933 1.95-7.2v0c0-3.367-0.64-5.833-1.92-7.4-1.287-1.567-3.247-2.35-5.88-2.35zM398.2-25l-0.15 17.55 0.05 7.45h-4l-13.1-19h-0.25l-0.05 10.7 0.1 8.3h-3.4l0.15-7.35-0.1-17.55h3.95l13.1 19h0.35l-0.1-18.85zM415.75-3l6.65-0.2 0.3 0.3-0.35 2.9h-15.15l0.15-7.5-0.15-17.4h15.25l0.25 0.3-0.3 2.9-6.3-0.2-5.2 0.05-0.05 7.55 4.95 0.05 4.35-0.15 0.25 0.35-0.3 2.95-4.6-0.15-4.65 0.05-0.05 3.4 0.05 4.75zM445.7-24.95c2.633 0 4.66 0.633 6.08 1.9 1.413 1.267 2.12 3.1 2.12 5.5v0c0 2.8-0.89 4.99-2.67 6.57-1.787 1.587-4.247 2.38-7.38 2.38v0h-3.05v0.8l0.1 7.8h-3.7l0.15-7.5-0.15-17.4zM445.05-11.5c3.3-0.567 4.95-2.483 4.95-5.75v0c0-1.567-0.44-2.733-1.32-3.5-0.887-0.767-2.213-1.183-3.98-1.25v0l-3.8 0.05-0.05 10.35zM479.8-24.9l-0.15 12.65v3.6c0.033 2.833-0.823 5.033-2.57 6.6-1.753 1.567-4.263 2.35-7.53 2.35v0c-3.233 0-5.7-0.773-7.4-2.32-1.7-1.553-2.517-3.763-2.45-6.63v0l0.05-3.8-0.05-12.45h3.75l-0.2 15.65c-0.033 2.1 0.493 3.683 1.58 4.75 1.08 1.067 2.703 1.6 4.87 1.6v0c2.133 0 3.75-0.533 4.85-1.6 1.1-1.067 1.633-2.65 1.6-4.75v0l-0.15-15.65zM501.15-3.15l0.2 0.35-0.25 2.8h-13.25l0.15-7.5-0.15-17.4h3.75l-0.15 17.1 0.1 4.65zM514.15-25.15c2.033 0 4.067 0.4 6.1 1.2v0l-0.65 3.7-0.6 0.15c-0.933-0.733-1.817-1.277-2.65-1.63-0.833-0.347-1.7-0.52-2.6-0.52v0c-1.433 0-2.567 0.373-3.4 1.12-0.833 0.753-1.25 1.613-1.25 2.58v0c0 0.967 0.41 1.75 1.23 2.35 0.813 0.6 2.07 1.267 3.77 2v0c1.5 0.667 2.693 1.267 3.58 1.8 0.88 0.533 1.647 1.24 2.3 2.12 0.647 0.887 0.97 1.963 0.97 3.23v0c0 1.3-0.35 2.507-1.05 3.62-0.7 1.12-1.723 2.02-3.07 2.7-1.353 0.687-2.963 1.03-4.83 1.03v0c-1.167 0-2.39-0.143-3.67-0.43-1.287-0.28-2.48-0.703-3.58-1.27v0l0.45-3.95 0.5-0.2c0.933 0.933 2.027 1.657 3.28 2.17 1.247 0.52 2.403 0.78 3.47 0.78v0c1.4 0 2.55-0.377 3.45-1.13 0.9-0.747 1.35-1.653 1.35-2.72v0c0-1-0.407-1.8-1.22-2.4-0.82-0.6-2.097-1.3-3.83-2.1v0c-1.433-0.633-2.607-1.217-3.52-1.75-0.92-0.533-1.697-1.243-2.33-2.13-0.633-0.88-0.95-1.953-0.95-3.22v0c0-1.333 0.36-2.533 1.08-3.6 0.713-1.067 1.73-1.917 3.05-2.55 1.313-0.633 2.853-0.95 4.62-0.95zM536.6-3l6.65-0.2 0.3 0.3-0.35 2.9h-15.15l0.15-7.5-0.15-17.4h15.25l0.25 0.3-0.3 2.9-6.3-0.2-5.2 0.05-0.05 7.55 4.95 0.05 4.35-0.15 0.25 0.35-0.3 2.95-4.6-0.15-4.65 0.05-0.05 3.4 0.05 4.75zM568.7-24.9l8.75 24.9h-3.75l-0.6-2.7-1.3-3.7-5.95-0.05-5.3 0.05-1.35 3.5-0.7 2.9h-3.7l9.6-24.9zM566.15-9.4l4.6-0.05-4.15-11.8h-0.3l-4.55 11.8zM596.45-24.9l0.2 0.3-0.25 3.15-4.65-0.35h-2.5l-0.15 14 0.15 7.8h-3.75l0.15-7.5-0.1-14.3h-2.5l-4.75 0.35-0.3-0.35 0.3-3.1zM621.65-24.9l8.75 24.9h-3.75l-0.6-2.7-1.3-3.7-5.95-0.05-5.3 0.05-1.35 3.5-0.7 2.9h-3.7l9.6-24.9zM619.1-9.4l4.6-0.05-4.15-11.8h-0.3l-4.55 11.8zM660.4-24.9l0.2 0.3-0.25 3.15-4.65-0.35h-2.5l-0.15 14 0.15 7.8h-3.75l0.15-7.5-0.1-14.3h-2.5l-4.75 0.35-0.3-0.35 0.3-3.1zM670.45-24.9l-0.15 17.1 0.1 7.8h-3.7l0.15-7.5-0.15-17.4zM703.6-24.9l2.55 24.9h-3.35l-0.55-7.6-1.35-11.5h-0.3l-7.15 16.3h-2.95l-6.75-16.3h-0.3l-1.3 11.2-0.7 7.9h-3.2l2.75-24.9h4.35l1.25 3.75 5.45 13.4h0.3l5.7-13.6 1.3-3.55zM722.35-3l6.65-0.2 0.3 0.3-0.35 2.9h-15.15l0.15-7.5-0.15-17.4h15.25l0.25 0.3-0.3 2.9-6.3-0.2-5.2 0.05-0.05 7.55 4.95 0.05 4.35-0.15 0.25 0.35-0.3 2.95-4.6-0.15-4.65 0.05-0.05 3.4 0.05 4.75z" fill="#0074d9" fill-rule="nonzero" stroke="none" stroke-width="1" stroke-linecap="butt" stroke-linejoin="miter" stroke-miterlimit="10" stroke-dasharray="" stroke-dashoffset="0" font-family="none" font-weight="none" font-size="none" text-anchor="none" style="mix-blend-mode: normal" data-fill-palette-color="secondary" id="text-1"></path></g></g><g transform="matrix(1,0,0,1,29.33176499999999,51.47320066207887)"><svg viewBox="0 0 316.416 53.03203567584227" height="53.03203567584227" width="316.416"><g><svg viewBox="0 0 379.7737144645955 63.65093160343841" height="53.03203567584227" width="316.416"><g transform="matrix(1,0,0,1,63.357714464595496,8.796908781661894)"><svg viewBox="0 0 316.416 46.05711404011462" height="46.05711404011462" width="316.416"><g id="textblocktransform"><svg viewBox="0 0 316.416 46.05711404011462" height="46.05711404011462" width="316.416" id="textblock"><g><svg viewBox="0 0 316.416 46.05711404011462" height="46.05711404011462" width="316.416"><g transform="matrix(1,0,0,1,0,0)"><svg width="316.416" viewBox="1 -37.25 261.72 38.1" height="46.05711404011462" data-palette-color="#01ff70"><path d="M20.9-18.55L20.9-18.55 20.9-14.35Q19.8-14.55 18.95-14.68 18.1-14.8 17.1-14.88 16.1-14.95 14.5-14.95L14.5-14.95Q13.3-14.95 12.08-14.9 10.85-14.85 9.15-14.6L9.15-14.6 9.15-18.3Q10.85-18.15 12.08-18.07 13.3-18 14.5-18L14.5-18Q16.1-18 17.1-18.07 18.1-18.15 18.95-18.28 19.8-18.4 20.9-18.55ZM19.6-22.7L22.35-22.7Q22.3-21.2 22.23-19.6 22.15-18 22.15-16.4L22.15-16.4Q22.15-14.85 22.23-13.25 22.3-11.65 22.35-10.2L22.35-10.2 19.6-10.2 17.95-15.4 17.95-17.55 19.6-22.7ZM1.9 0L1.25-1.9 5.5-2.95Q5.6-6.5 5.68-9.95 5.75-13.4 5.75-16.75L5.75-16.75Q5.75-20.15 5.7-23.55 5.65-26.95 5.5-29.85L5.5-29.85 1-31.05 1.65-33Q2.95-32.95 3.95-32.9 4.95-32.85 6.15-32.83 7.35-32.8 9.1-32.8L9.1-32.8Q10.6-32.8 13.13-32.8 15.65-32.8 18.48-32.83 21.3-32.85 23.85-32.9 26.4-32.95 27.95-33L27.95-33Q27.85-30.4 27.73-27.95 27.6-25.5 27.55-23.1L27.55-23.1 24.35-23.1 23.45-28.4Q21.7-29.15 19.15-29.48 16.6-29.8 13.05-29.35L13.05-29.35Q13.05-26.1 13.03-23.38 13-20.65 12.98-18.78 12.95-16.9 12.95-16.25L12.95-16.25Q12.95-12.95 12.95-10.73 12.95-8.5 12.98-6.8 13-5.1 13.05-3.4L13.05-3.4 19.1-1.85 18.45 0Q16.8-0.05 15.5-0.08 14.2-0.1 12.75-0.13 11.3-0.15 9.1-0.15L9.1-0.15Q7.1-0.15 5.45-0.13 3.8-0.1 1.9 0L1.9 0ZM40.55-37.25L40.55-37.25Q40.5-28.75 40.52-19.93 40.55-11.1 40.7-2.9L40.7-2.9 44.65-1.85 43.7 0Q42.8-0.05 42.02-0.08 41.25-0.1 40.17-0.13 39.1-0.15 37.25-0.15L37.25-0.15Q35.6-0.15 34.52-0.13 33.45-0.1 32.6-0.08 31.75-0.05 30.7 0L30.7 0 29.75-1.85 33.7-2.9Q33.8-8.25 33.82-13.88 33.85-19.5 33.77-24.63 33.7-29.75 33.5-33.6L33.5-33.6 29.2-34.3 28.7-36.25Q29.85-36.35 31.8-36.45 33.75-36.55 36.07-36.75 38.4-36.95 40.55-37.25ZM57.75-21.7L57.75-21.7Q61.45-21.7 63.92-20.15 66.4-18.6 67.62-16.1 68.84-13.6 68.84-10.7L68.84-10.7Q68.84-7.75 67.59-5.18 66.34-2.6 63.84-1.05 61.34 0.5 57.6 0.5L57.6 0.5Q53.85 0.5 51.3-1.07 48.75-2.65 47.45-5.25 46.15-7.85 46.15-10.8L46.15-10.8Q46.15-13.7 47.42-16.18 48.7-18.65 51.27-20.18 53.85-21.7 57.75-21.7ZM53.15-11.85L53.15-11.85Q53.15-9.35 53.72-7.1 54.3-4.85 55.45-3.45 56.6-2.05 58.2-2.05L58.2-2.05Q60.1-2.05 61.02-4.13 61.95-6.2 61.95-9.3L61.95-9.3Q61.95-11.8 61.37-14.03 60.8-16.25 59.67-17.68 58.55-19.1 56.9-19.1L56.9-19.1Q55-19.1 54.07-17.03 53.15-14.95 53.15-11.85ZM81.49-21.7L81.49-21.7Q81.54-20.55 81.64-19 81.74-17.45 81.84-16.18 81.94-14.9 81.94-14.45L81.94-14.45 82.29-3.1 87.24-1.85 86.49 0Q85.64-0.05 84.24-0.08 82.84-0.1 81.34-0.13 79.84-0.15 78.64-0.15L78.64-0.15Q77.09-0.15 75.29-0.1 73.49-0.05 71.99 0L71.99 0 71.24-1.85 75.29-2.9Q75.29-5.15 75.29-6.93 75.29-8.7 75.29-10.8L75.29-10.8Q75.29-11.95 75.27-12.93 75.24-13.9 75.19-15.13 75.14-16.35 74.99-18.15L74.99-18.15 71.59-18.7 70.89-20.8Q72.04-20.85 73.97-20.95 75.89-21.05 77.94-21.25 79.99-21.45 81.49-21.7ZM88.19-21.8L88.19-21.8Q89.59-21.8 90.79-21.28 91.99-20.75 93.09-19.6L93.09-19.6Q92.79-18.1 92.54-17 92.29-15.9 91.97-14.83 91.64-13.75 91.19-12.2L91.19-12.2 88.39-12.2Q88.04-14.05 87.37-15.43 86.69-16.8 85.54-17.3L85.54-17.3Q84.29-16.5 83.17-14.33 82.04-12.15 82.04-8.55L82.04-8.55 80.09-11.45Q80.49-14.25 81.64-16.6 82.79-18.95 84.47-20.38 86.14-21.8 88.19-21.8ZM107.89-21.8L107.89-21.8Q110.54-21.8 112.49-20.18 114.44-18.55 114.44-15.25L114.44-15.25Q114.44-13.1 114.36-11.65 114.29-10.2 114.22-9.08 114.14-7.95 114.14-6.75L114.14-6.75Q114.14-5.35 114.31-4.78 114.49-4.2 115.29-4.2L115.29-4.2Q115.99-4.2 117.39-4.85L117.39-4.85 118.29-2.65Q116.49-1.4 114.84-0.58 113.19 0.25 111.34 0.25L111.34 0.25Q109.79 0.25 108.64-0.98 107.49-2.2 107.49-4.85L107.49-4.85Q107.49-7.3 107.72-9.68 107.94-12.05 107.94-13.9L107.94-13.9Q107.94-15.45 107.49-16.4 107.04-17.35 105.99-17.7L105.99-17.7Q103.69-17.6 101.59-16.85 99.49-16.1 97.29-14.95L97.29-14.95 95.99-17.1Q98.84-19.2 101.77-20.5 104.69-21.8 107.89-21.8ZM111.44-13.95L111.44-13.95 108.44-9.8Q107.34-9.55 106.49-9.3 105.64-9.05 104.94-8.9L104.94-8.9Q103.24-8.55 102.59-8.03 101.94-7.5 101.94-6.2L101.94-6.2Q101.94-5.15 102.49-4.55 103.04-3.95 103.99-3.95L103.99-3.95Q105.14-3.95 106.91-5.03 108.69-6.1 109.94-7.75L109.94-7.75 110.89-5.7Q110.09-4.7 108.61-3.25 107.14-1.8 105.09-0.68 103.04 0.45 100.59 0.45L100.59 0.45Q99.34 0.45 98.16-0.23 96.99-0.9 96.22-2.25 95.44-3.6 95.44-5.6L95.44-5.6Q95.44-7.7 96.72-8.88 97.99-10.05 100.19-10.7 102.39-11.35 105.04-11.8L105.04-11.8Q106.84-12.1 108.39-12.58 109.94-13.05 111.44-13.95ZM130.49-37.25L130.49-37.25Q130.44-28.75 130.46-19.93 130.49-11.1 130.64-2.9L130.64-2.9 134.59-1.85 133.64 0Q132.74-0.05 131.96-0.08 131.19-0.1 130.11-0.13 129.04-0.15 127.19-0.15L127.19-0.15Q125.54-0.15 124.46-0.13 123.39-0.1 122.54-0.08 121.69-0.05 120.64 0L120.64 0 119.69-1.85 123.64-2.9Q123.74-8.25 123.76-13.88 123.79-19.5 123.71-24.63 123.64-29.75 123.44-33.6L123.44-33.6 119.14-34.3 118.64-36.25Q119.79-36.35 121.74-36.45 123.69-36.55 126.01-36.75 128.34-36.95 130.49-37.25ZM162.78-33L162.78-33Q168.38-33 171.08-30.43 173.78-27.85 173.78-23.65L173.78-23.65Q173.78-20.45 172.21-18.03 170.63-15.6 167.71-14.25 164.78-12.9 160.73-12.9L160.73-12.9Q159.83-12.9 158.53-13.05 157.23-13.2 155.78-13.5L155.78-13.5 155.78-16.65Q157.43-16.3 158.61-16.07 159.78-15.85 160.68-15.85L160.68-15.85Q161.38-15.85 161.98-15.93 162.58-16 163.13-16.1L163.13-16.1Q164.73-17.15 165.51-19.03 166.28-20.9 166.28-23L166.28-23Q166.28-24.8 165.73-26.43 165.18-28.05 164.08-29.08 162.98-30.1 161.38-30.1L161.38-30.1Q160.38-30.1 159.53-29.98 158.68-29.85 158.03-29.75L158.03-29.75Q158.03-28.35 158.03-26.13 158.03-23.9 158.03-21.5 158.03-19.1 158.03-17.05 158.03-15 158.03-13.9L158.03-13.9Q158.03-12.2 158.03-11.18 158.03-10.15 158.03-9.47 158.03-8.8 158.03-8.08 158.03-7.35 158.03-6.23 158.03-5.1 158.03-3.2L158.03-3.2 163.53-1.9 162.83 0Q160.23-0.15 154.28-0.15L154.28-0.15Q151.83-0.15 149.98-0.1 148.13-0.05 146.58 0L146.58 0 145.83-1.9 150.48-2.95Q150.58-5.2 150.63-8.03 150.68-10.85 150.71-13.6 150.73-16.35 150.73-18.3L150.73-18.3Q150.73-20.9 150.71-22.73 150.68-24.55 150.63-26.18 150.58-27.8 150.48-29.8L150.48-29.8 146.03-31.1 146.58-33Q148.13-32.95 149.28-32.9 150.43-32.85 151.61-32.83 152.78-32.8 154.23-32.8L154.23-32.8Q155.78-32.8 157.03-32.85 158.28-32.9 159.61-32.95 160.93-33 162.78-33ZM187.28 0.85L187.28 0.85Q184.13 0.85 182.36-1.3 180.58-3.45 180.33-7.55L180.33-7.55Q180.23-9.3 180.23-11.88 180.23-14.45 180.28-18.35L180.28-18.35 176.73-18.9 176.13-20.95Q179.03-20.95 181.86-21.15 184.68-21.35 187.13-21.7L187.13-21.7Q187.03-19.4 186.91-17.48 186.78-15.55 186.78-13.58 186.78-11.6 186.93-9L186.93-9Q187.08-6.1 188.28-5 189.48-3.9 190.63-3.9L190.63-3.9Q191.83-4.15 192.88-5.53 193.93-6.9 194.58-8.88 195.23-10.85 195.23-12.8L195.23-12.8 196.53-8.55Q196.23-6.1 194.98-3.95 193.73-1.8 191.76-0.48 189.78 0.85 187.28 0.85ZM195.63 0L195.63 0Q195.58-1.5 195.46-3.2 195.33-4.9 195.28-7.25L195.28-7.25 194.98-18.3 191.38-18.9 190.78-20.95Q193.73-20.95 196.48-21.15 199.23-21.35 201.73-21.7L201.73-21.7Q201.73-21.7 201.71-20.55 201.68-19.4 201.66-17.7 201.63-16 201.58-14.33 201.53-12.65 201.51-11.5 201.48-10.35 201.48-10.35L201.48-10.35Q201.53-8.65 201.66-7.13 201.78-5.6 201.98-2.9L201.98-2.9 205.73-1.85 204.78 0Q203.48-0.1 202.36-0.1 201.23-0.1 199.48-0.1L199.48-0.1Q198.73-0.1 197.53-0.05 196.33 0 195.63 0ZM217.93-37.25L217.93-37.25Q217.88-28.75 217.9-19.93 217.93-11.1 218.08-2.9L218.08-2.9 222.03-1.85 221.08 0Q220.18-0.05 219.4-0.08 218.63-0.1 217.55-0.13 216.48-0.15 214.63-0.15L214.63-0.15Q212.98-0.15 211.9-0.13 210.83-0.1 209.98-0.08 209.13-0.05 208.08 0L208.08 0 207.13-1.85 211.08-2.9Q211.18-8.25 211.2-13.88 211.23-19.5 211.15-24.63 211.08-29.75 210.88-33.6L210.88-33.6 206.58-34.3 206.08-36.25Q207.23-36.35 209.18-36.45 211.13-36.55 213.45-36.75 215.78-36.95 217.93-37.25ZM223.58-1.3L223.58-1.3Q223.98-3.2 224.25-4.48 224.53-5.75 224.73-7.25L224.73-7.25 227.23-7.25 228.03-3.35Q228.68-2.8 229.58-2.5 230.48-2.2 231.38-2.2L231.38-2.2Q232.63-2.2 233.6-2.8 234.58-3.4 234.58-4.65L234.58-4.65Q234.58-5.7 233.8-6.38 233.03-7.05 231.83-7.58 230.63-8.1 229.28-8.63 227.93-9.15 226.73-9.95 225.53-10.75 224.75-11.95 223.98-13.15 223.98-15L223.98-15Q223.98-17.55 225.23-19.03 226.48-20.5 228.5-21.15 230.53-21.8 232.78-21.8L232.78-21.8Q234.53-21.8 236.43-21.4 238.33-21 239.88-20.25L239.88-20.25Q239.48-18.5 239.15-17.15 238.83-15.8 238.58-14.5L238.58-14.5 235.98-14.55 235.33-17.95Q234.43-19.15 232.38-19.15L232.38-19.15Q231.28-19.15 230.35-18.65 229.43-18.15 229.43-17L229.43-17Q229.43-15.9 230.23-15.23 231.03-14.55 232.3-14.05 233.58-13.55 235.03-12.98 236.48-12.4 237.75-11.55 239.03-10.7 239.83-9.38 240.63-8.05 240.63-6L240.63-6Q240.63-3.6 239.33-2.18 238.03-0.75 235.88-0.13 233.73 0.5 231.23 0.5L231.23 0.5Q229.33 0.5 227.38 0.1 225.43-0.3 223.58-1.3ZM253.27-21.85L253.27-21.85Q255.77-21.85 257.9-20.75 260.02-19.65 261.3-17.43 262.57-15.2 262.57-11.85L262.57-11.85Q261.47-11.65 259.67-11.5 257.87-11.35 255.72-11.28 253.57-11.2 251.42-11.2L251.42-11.2Q249.82-11.2 248.67-11.25 247.52-11.3 247.12-11.35L247.12-11.35 247.12-13.75Q247.67-13.75 248.8-13.75 249.92-13.75 251.32-13.8 252.72-13.85 254.05-13.95 255.37-14.05 256.27-14.2L256.27-14.2Q256.22-15.25 255.7-16.32 255.17-17.4 254.12-18.15 253.07-18.9 251.42-18.9L251.42-18.9Q250.42-17.95 249.82-16.28 249.22-14.6 249.22-12.4L249.22-12.4Q249.22-7.9 251.1-5.78 252.97-3.65 255.72-3.65L255.72-3.65Q258.52-3.65 261.62-5.65L261.62-5.65 262.72-3.35Q260.57-1.4 258.12-0.55 255.67 0.3 253.27 0.3L253.27 0.3Q250.47 0.3 248.05-0.93 245.62-2.15 244.15-4.6 242.67-7.05 242.67-10.7L242.67-10.7Q242.67-14.4 244.2-16.88 245.72-19.35 248.15-20.6 250.57-21.85 253.27-21.85Z" opacity="1" transform="matrix(1,0,0,1,0,0)" fill="#01ff70" class="wordmark-text-0" data-fill-palette-color="primary" id="text-0"></path></svg></g></svg></g></svg></g></svg></g><g><svg viewBox="0 0 52.484735210461395 63.65093160343841" height="63.65093160343841" width="52.484735210461395"><g><svg xmlns="http://www.w3.org/2000/svg" xmlns:xlink="http://www.w3.org/1999/xlink" version="1.1" x="0" y="0" viewBox="17.709 4 68.291 82.82" enable-background="new 0 0 100 100" xml:space="preserve" height="63.65093160343841" width="52.484735210461395" class="icon-icon-0" data-fill-palette-color="accent" id="icon-0"><path d="M53.129 79.595H53.257C53.257 79.542 53.294 74.294 56.377 74.294 64.723 74.294 67.216 59.964 67.474 58.333L67.754 56.554H66.117L67.666 42.191H65.892L65.546 31.875H64.059L62.941 22.982H61.284L58.902 13.141H55.486L52.879 4H50.429L47.822 13.141H44.407L42.027 22.982H40.366L39.281 31.875H37.762L37.415 42.19H35.642L37.191 56.553H35.556L35.835 58.332C36.092 59.963 38.586 74.293 46.933 74.293 49.992 74.293 50.051 79.545 50.051 79.594V83.742H17.709V86.82H86V83.742H53.129z" fill="#3d9970" data-fill-palette-color="accent"></path></svg></g></svg></g></svg></g></svg></g></svg></g><defs></defs></svg><rect width="375.07953" height="155.978437" fill="none" stroke="none" visibility="hidden"></rect></g></svg></g></svg>